<?xml version="1.0" encoding="utf-8" standalone="no"?>
<!DOCTYPE svg PUBLIC "-//W3C//DTD SVG 1.1//EN"
  "http://www.w3.org/Graphics/SVG/1.1/DTD/svg11.dtd">
<!-- Created with matplotlib (http://matplotlib.org/) -->
<svg height="396pt" version="1.1" viewBox="0 0 576 396" width="576pt" xmlns="http://www.w3.org/2000/svg" xmlns:xlink="http://www.w3.org/1999/xlink">
 <defs>
  <style type="text/css">
*{stroke-linecap:butt;stroke-linejoin:round;}
  </style>
 </defs>
 <g id="figure_1">
  <g id="patch_1">
   <path d="
M0 396
L576 396
L576 0
L0 0
z
" style="fill:none;"/>
  </g>
  <g id="axes_1">
   <g id="patch_2">
    <path d="
M63.9975 329.765
L558.125 329.765
L558.125 19.71
L63.9975 19.71
z
" style="fill:none;"/>
   </g>
   <g id="matplotlib.axis_1">
    <g id="xtick_1">
     <g id="line2d_1">
      <path clip-path="url(#p515d177238)" d="
M63.9975 329.765
L63.9975 19.71" style="fill:none;stroke:#808080;stroke-linecap:round;"/>
     </g>
     <g id="line2d_2">
      <defs>
       <path d="
M0 0
L0 0" id="md70f53a077" style="stroke:#262626;"/>
      </defs>
      <g>
       <use style="fill:#262626;stroke:#262626;" x="63.9975" xlink:href="#md70f53a077" y="329.765"/>
      </g>
     </g>
     <g id="line2d_3">
      <g>
       <use style="fill:#262626;stroke:#262626;" x="63.9975" xlink:href="#md70f53a077" y="19.71"/>
      </g>
     </g>
     <g id="text_1">
      <!-- $-\pi$ -->
      <defs>
       <path d="
M10.1094 1.70312
Q10.1094 2.25 10.5 3.32812
Q13.2812 9.125 15.6875 14.7188
Q18.1094 20.3125 20.0312 25.6094
Q21.9688 30.9062 23.5781 36.9219
L17.1875 36.9219
Q13.5312 36.9219 10.3438 34.625
Q7.17188 32.3281 5.07812 28.8125
Q4.89062 28.4219 4.5 28.4219
L3.32812 28.4219
Q2.39062 28.4219 2.39062 29.3906
Q2.39062 29.5938 2.59375 29.9844
Q5.85938 35.5469 9.59375 39.3281
Q13.3281 43.1094 18.0156 43.1094
L54.2969 43.1094
Q55.3281 43.1094 56.0469 42.4219
Q56.7812 41.75 56.7812 40.5781
Q56.7812 39.1094 55.7344 38.0156
Q54.6875 36.9219 53.2188 36.9219
L40.4844 36.9219
Q38.875 29.0469 38.7188 21.5781
Q38.7188 11.9688 42.0938 4.20312
Q42.3906 3.60938 42.3906 2.98438
Q42.3906 1.90625 41.75 0.96875
Q41.1094 0.046875 40.1094 -0.53125
Q39.1094 -1.125 37.9844 -1.125
Q35.3594 -1.125 34.375 3.17188
Q33.4062 7.46875 33.4062 11.5312
Q33.4062 17.2344 34.375 22.5312
Q35.3594 27.8281 37.5 36.9219
L26.6094 36.9219
Q18.7031 4.89062 17.0938 1.60938
Q15.6719 -1.125 13.1875 -1.125
Q11.9688 -1.125 11.0312 -0.3125
Q10.1094 0.484375 10.1094 1.70312" id="Cmmi10-bc"/>
       <path d="
M10.2031 23
Q9.375 23 8.82812 23.625
Q8.29688 24.2656 8.29688 25
Q8.29688 25.7344 8.82812 26.3594
Q9.375 27 10.2031 27
L67.5781 27
Q68.3594 27 68.875 26.3594
Q69.3906 25.7344 69.3906 25
Q69.3906 24.2656 68.875 23.625
Q68.3594 23 67.5781 23
z
" id="Cmsy10-a1"/>
      </defs>
      <g style="fill:#262626;" transform="translate(54.5475 346.910625)scale(0.14 -0.14)">
       <use transform="translate(0.0 0.890625)" xlink:href="#Cmsy10-a1"/>
       <use transform="translate(77.685546875 0.890625)" xlink:href="#Cmmi10-bc"/>
      </g>
     </g>
    </g>
    <g id="xtick_2">
     <g id="line2d_4">
      <path clip-path="url(#p515d177238)" d="
M125.763 329.765
L125.763 19.71" style="fill:none;stroke:#808080;stroke-linecap:round;"/>
     </g>
     <g id="line2d_5">
      <g>
       <use style="fill:#262626;stroke:#262626;" x="125.763457031" xlink:href="#md70f53a077" y="329.765"/>
      </g>
     </g>
     <g id="line2d_6">
      <g>
       <use style="fill:#262626;stroke:#262626;" x="125.763457031" xlink:href="#md70f53a077" y="19.71"/>
      </g>
     </g>
     <g id="text_2">
      <!-- $-\frac{3\pi}{4}$ -->
      <defs>
       <path d="
M9.51562 7.71875
Q11.8594 4.29688 15.8125 2.64062
Q19.7812 0.984375 24.3125 0.984375
Q30.125 0.984375 32.5625 5.9375
Q35.0156 10.8906 35.0156 17.1875
Q35.0156 20.0156 34.5 22.8438
Q33.9844 25.6875 32.7656 28.125
Q31.5469 30.5625 29.4219 32.0312
Q27.2969 33.5 24.2188 33.5
L17.5781 33.5
Q16.7031 33.5 16.7031 34.4219
L16.7031 35.2969
Q16.7031 36.0781 17.5781 36.0781
L23.0938 36.5312
Q26.6094 36.5312 28.9219 39.1562
Q31.25 41.7969 32.3281 45.5781
Q33.4062 49.3594 33.4062 52.7812
Q33.4062 57.5625 31.1562 60.6406
Q28.9062 63.7188 24.3125 63.7188
Q20.5156 63.7188 17.0469 62.2812
Q13.5781 60.8438 11.5312 57.9062
Q11.7188 57.9531 11.8594 57.9844
Q12.0156 58.0156 12.2031 58.0156
Q14.4531 58.0156 15.9688 56.4531
Q17.4844 54.8906 17.4844 52.6875
Q17.4844 50.5312 15.9688 48.9688
Q14.4531 47.4062 12.2031 47.4062
Q10.0156 47.4062 8.45312 48.9688
Q6.89062 50.5312 6.89062 52.6875
Q6.89062 56.9844 9.46875 60.1562
Q12.0625 63.3281 16.1406 64.9688
Q20.2188 66.6094 24.3125 66.6094
Q27.3438 66.6094 30.7031 65.7031
Q34.0781 64.7969 36.8125 63.1094
Q39.5469 61.4219 41.2812 58.7812
Q43.0156 56.1562 43.0156 52.7812
Q43.0156 48.5781 41.1406 45.0156
Q39.2656 41.4531 35.9844 38.8594
Q32.7188 36.2812 28.8125 35.0156
Q33.1562 34.1875 37.0625 31.7344
Q40.9688 29.2969 43.3281 25.4844
Q45.7031 21.6875 45.7031 17.2812
Q45.7031 11.7656 42.6719 7.29688
Q39.6562 2.82812 34.7188 0.3125
Q29.7812 -2.20312 24.3125 -2.20312
Q19.625 -2.20312 14.9062 -0.40625
Q10.2031 1.375 7.20312 4.9375
Q4.20312 8.5 4.20312 13.4844
Q4.20312 15.9688 5.85938 17.625
Q7.51562 19.2812 10.0156 19.2812
Q11.625 19.2812 12.9688 18.5312
Q14.3125 17.7812 15.0625 16.4062
Q15.8281 15.0469 15.8281 13.4844
Q15.8281 11.0312 14.1094 9.375
Q12.4062 7.71875 10.0156 7.71875
z
" id="Cmr10-33"/>
       <path d="
M2.78125 16.5
L2.78125 20.0156
L33.6875 66.1094
Q34.0312 66.6094 34.7188 66.6094
L36.1875 66.6094
Q37.3125 66.6094 37.3125 65.4844
L37.3125 20.0156
L47.125 20.0156
L47.125 16.5
L37.3125 16.5
L37.3125 6.6875
Q37.3125 4.64062 40.2344 4.07812
Q43.1719 3.51562 47.0156 3.51562
L47.0156 0
L19.4844 0
L19.4844 3.51562
Q23.3438 3.51562 26.2656 4.07812
Q29.2031 4.64062 29.2031 6.6875
L29.2031 16.5
z

M6.10938 20.0156
L29.7812 20.0156
L29.7812 55.4219
z
" id="Cmr10-34"/>
      </defs>
      <g style="fill:#262626;" transform="translate(114.143457031 348.805)scale(0.14 -0.14)">
       <use transform="translate(0.0 0.33125000000001137)" xlink:href="#Cmsy10-a1"/>
       <use transform="translate(77.685546875 39.3734375)scale(0.7)" xlink:href="#Cmr10-33"/>
       <use transform="translate(112.685546875 39.3734375)scale(0.7)" xlink:href="#Cmmi10-bc"/>
       <use transform="translate(97.685546875 -40.045312499999994)scale(0.7)" xlink:href="#Cmr10-34"/>
       <path d="
M77.6855 12.8313
L77.6855 19.0813
L152.573 19.0813
L152.573 12.8313
L77.6855 12.8313
z
"/>
      </g>
     </g>
    </g>
    <g id="xtick_3">
     <g id="line2d_7">
      <path clip-path="url(#p515d177238)" d="
M187.529 329.765
L187.529 19.71" style="fill:none;stroke:#808080;stroke-linecap:round;"/>
     </g>
     <g id="line2d_8">
      <g>
       <use style="fill:#262626;stroke:#262626;" x="187.529414062" xlink:href="#md70f53a077" y="329.765"/>
      </g>
     </g>
     <g id="line2d_9">
      <g>
       <use style="fill:#262626;stroke:#262626;" x="187.529414062" xlink:href="#md70f53a077" y="19.71"/>
      </g>
     </g>
     <g id="text_3">
      <!-- $-\frac{\pi}{2}$ -->
      <defs>
       <path d="
M4.98438 0
L4.98438 2.6875
Q4.98438 2.9375 5.17188 3.21875
L20.7031 20.4062
Q24.2188 24.2188 26.4062 26.7969
Q28.6094 29.3906 30.75 32.7656
Q32.9062 36.1406 34.1562 39.625
Q35.4062 43.1094 35.4062 47.0156
Q35.4062 51.125 33.8906 54.8594
Q32.375 58.5938 29.375 60.8438
Q26.375 63.0938 22.125 63.0938
Q17.7812 63.0938 14.3125 60.4688
Q10.8438 57.8594 9.42188 53.7188
Q9.8125 53.8125 10.5 53.8125
Q12.75 53.8125 14.3281 52.2969
Q15.9219 50.7812 15.9219 48.3906
Q15.9219 46.0938 14.3281 44.5
Q12.75 42.9219 10.5 42.9219
Q8.15625 42.9219 6.5625 44.5469
Q4.98438 46.1875 4.98438 48.3906
Q4.98438 52.1562 6.39062 55.4375
Q7.8125 58.7344 10.4688 61.2969
Q13.1406 63.875 16.4844 65.2344
Q19.8281 66.6094 23.5781 66.6094
Q29.2969 66.6094 34.2188 64.1875
Q39.1562 61.7656 42.0312 57.3438
Q44.9219 52.9375 44.9219 47.0156
Q44.9219 42.6719 43.0156 38.7656
Q41.1094 34.8594 38.125 31.6562
Q35.1562 28.4688 30.5156 24.4062
Q25.875 20.3594 24.4219 19
L13.0938 8.10938
L22.7031 8.10938
Q29.7812 8.10938 34.5469 8.21875
Q39.3125 8.34375 39.5938 8.59375
Q40.7656 9.85938 42 17.8281
L44.9219 17.8281
L42.0938 0
z
" id="Cmr10-32"/>
      </defs>
      <g style="fill:#262626;" transform="translate(178.359414062 346.425)scale(0.14 -0.14)">
       <use transform="translate(0.0 0.535937500000017)" xlink:href="#Cmsy10-a1"/>
       <use transform="translate(77.685546875 38.8234375)scale(0.7)" xlink:href="#Cmmi10-bc"/>
       <use transform="translate(79.685546875 -39.840625)scale(0.7)" xlink:href="#Cmr10-32"/>
       <path d="
M77.6855 13.0359
L77.6855 19.2859
L117.573 19.2859
L117.573 13.0359
L77.6855 13.0359
z
"/>
      </g>
     </g>
    </g>
    <g id="xtick_4">
     <g id="line2d_10">
      <path clip-path="url(#p515d177238)" d="
M249.295 329.765
L249.295 19.71" style="fill:none;stroke:#808080;stroke-linecap:round;"/>
     </g>
     <g id="line2d_11">
      <g>
       <use style="fill:#262626;stroke:#262626;" x="249.295371094" xlink:href="#md70f53a077" y="329.765"/>
      </g>
     </g>
     <g id="line2d_12">
      <g>
       <use style="fill:#262626;stroke:#262626;" x="249.295371094" xlink:href="#md70f53a077" y="19.71"/>
      </g>
     </g>
     <g id="text_4">
      <!-- $-\frac{\pi}{4}$ -->
      <g style="fill:#262626;" transform="translate(240.125371094 346.425)scale(0.14 -0.14)">
       <use transform="translate(0.0 0.535937500000017)" xlink:href="#Cmsy10-a1"/>
       <use transform="translate(77.685546875 38.8234375)scale(0.7)" xlink:href="#Cmmi10-bc"/>
       <use transform="translate(79.685546875 -39.840625)scale(0.7)" xlink:href="#Cmr10-34"/>
       <path d="
M77.6855 13.0359
L77.6855 19.2859
L117.573 19.2859
L117.573 13.0359
L77.6855 13.0359
z
"/>
      </g>
     </g>
    </g>
    <g id="xtick_5">
     <g id="line2d_13">
      <path clip-path="url(#p515d177238)" d="
M311.061 329.765
L311.061 19.71" style="fill:none;stroke:#808080;stroke-linecap:round;"/>
     </g>
     <g id="line2d_14">
      <g>
       <use style="fill:#262626;stroke:#262626;" x="311.061328125" xlink:href="#md70f53a077" y="329.765"/>
      </g>
     </g>
     <g id="line2d_15">
      <g>
       <use style="fill:#262626;stroke:#262626;" x="311.061328125" xlink:href="#md70f53a077" y="19.71"/>
      </g>
     </g>
     <g id="text_5">
      <!-- $0$ -->
      <defs>
       <path d="
M25 -2.20312
Q12.75 -2.20312 8.32812 7.875
Q3.90625 17.9688 3.90625 31.8906
Q3.90625 40.5781 5.48438 48.2344
Q7.07812 55.9062 11.7812 61.25
Q16.5 66.6094 25 66.6094
Q31.5938 66.6094 35.7812 63.375
Q39.9844 60.1562 42.1875 55.0469
Q44.3906 49.9531 45.1875 44.1094
Q46 38.2812 46 31.8906
Q46 23.2969 44.4062 15.7969
Q42.8281 8.29688 38.1875 3.04688
Q33.5469 -2.20312 25 -2.20312
M25 0.390625
Q30.5625 0.390625 33.2969 6.09375
Q36.0312 11.8125 36.6719 18.75
Q37.3125 25.6875 37.3125 33.5
Q37.3125 41.0156 36.6719 47.3594
Q36.0312 53.7188 33.3125 58.8594
Q30.6094 64.0156 25 64.0156
Q19.3438 64.0156 16.6094 58.8281
Q13.875 53.6562 13.2344 47.3281
Q12.5938 41.0156 12.5938 33.5
Q12.5938 27.9375 12.8594 23
Q13.1406 18.0625 14.3125 12.8125
Q15.4844 7.5625 18.0938 3.96875
Q20.7031 0.390625 25 0.390625" id="Cmr10-30"/>
      </defs>
      <g style="fill:#262626;" transform="translate(307.561328125 346.910625)scale(0.14 -0.14)">
       <use transform="translate(0.0 0.390625)" xlink:href="#Cmr10-30"/>
      </g>
     </g>
    </g>
    <g id="xtick_6">
     <g id="line2d_16">
      <path clip-path="url(#p515d177238)" d="
M372.827 329.765
L372.827 19.71" style="fill:none;stroke:#808080;stroke-linecap:round;"/>
     </g>
     <g id="line2d_17">
      <g>
       <use style="fill:#262626;stroke:#262626;" x="372.827285156" xlink:href="#md70f53a077" y="329.765"/>
      </g>
     </g>
     <g id="line2d_18">
      <g>
       <use style="fill:#262626;stroke:#262626;" x="372.827285156" xlink:href="#md70f53a077" y="19.71"/>
      </g>
     </g>
     <g id="text_6">
      <!-- $\frac{\pi}{4}$ -->
      <g style="fill:#262626;" transform="translate(369.117285156 346.425)scale(0.14 -0.14)">
       <use transform="translate(0.0 38.8234375)scale(0.7)" xlink:href="#Cmmi10-bc"/>
       <use transform="translate(2.0 -39.840625)scale(0.7)" xlink:href="#Cmr10-34"/>
       <path d="
M0 13.0359
L0 19.2859
L39.8877 19.2859
L39.8877 13.0359
L0 13.0359
z
"/>
      </g>
     </g>
    </g>
    <g id="xtick_7">
     <g id="line2d_19">
      <path clip-path="url(#p515d177238)" d="
M434.593 329.765
L434.593 19.71" style="fill:none;stroke:#808080;stroke-linecap:round;"/>
     </g>
     <g id="line2d_20">
      <g>
       <use style="fill:#262626;stroke:#262626;" x="434.593242187" xlink:href="#md70f53a077" y="329.765"/>
      </g>
     </g>
     <g id="line2d_21">
      <g>
       <use style="fill:#262626;stroke:#262626;" x="434.593242187" xlink:href="#md70f53a077" y="19.71"/>
      </g>
     </g>
     <g id="text_7">
      <!-- $\frac{\pi}{2}$ -->
      <g style="fill:#262626;" transform="translate(430.883242188 346.425)scale(0.14 -0.14)">
       <use transform="translate(0.0 38.8234375)scale(0.7)" xlink:href="#Cmmi10-bc"/>
       <use transform="translate(2.0 -39.840625)scale(0.7)" xlink:href="#Cmr10-32"/>
       <path d="
M0 13.0359
L0 19.2859
L39.8877 19.2859
L39.8877 13.0359
L0 13.0359
z
"/>
      </g>
     </g>
    </g>
    <g id="xtick_8">
     <g id="line2d_22">
      <path clip-path="url(#p515d177238)" d="
M496.359 329.765
L496.359 19.71" style="fill:none;stroke:#808080;stroke-linecap:round;"/>
     </g>
     <g id="line2d_23">
      <g>
       <use style="fill:#262626;stroke:#262626;" x="496.359199219" xlink:href="#md70f53a077" y="329.765"/>
      </g>
     </g>
     <g id="line2d_24">
      <g>
       <use style="fill:#262626;stroke:#262626;" x="496.359199219" xlink:href="#md70f53a077" y="19.71"/>
      </g>
     </g>
     <g id="text_8">
      <!-- $\frac{3\pi}{4}$ -->
      <g style="fill:#262626;" transform="translate(490.199199219 348.805)scale(0.14 -0.14)">
       <use transform="translate(0.0 39.3734375)scale(0.7)" xlink:href="#Cmr10-33"/>
       <use transform="translate(35.0 39.3734375)scale(0.7)" xlink:href="#Cmmi10-bc"/>
       <use transform="translate(20.0 -40.045312499999994)scale(0.7)" xlink:href="#Cmr10-34"/>
       <path d="
M0 12.8313
L0 19.0813
L74.8877 19.0813
L74.8877 12.8313
L0 12.8313
z
"/>
      </g>
     </g>
    </g>
    <g id="xtick_9">
     <g id="line2d_25">
      <path clip-path="url(#p515d177238)" d="
M558.125 329.765
L558.125 19.71" style="fill:none;stroke:#808080;stroke-linecap:round;"/>
     </g>
     <g id="line2d_26">
      <g>
       <use style="fill:#262626;stroke:#262626;" x="558.12515625" xlink:href="#md70f53a077" y="329.765"/>
      </g>
     </g>
     <g id="line2d_27">
      <g>
       <use style="fill:#262626;stroke:#262626;" x="558.12515625" xlink:href="#md70f53a077" y="19.71"/>
      </g>
     </g>
     <g id="text_9">
      <!-- $\pi$ -->
      <g style="fill:#262626;" transform="translate(554.13515625 346.910625)scale(0.14 -0.14)">
       <use transform="translate(0.0 0.890625)" xlink:href="#Cmmi10-bc"/>
      </g>
     </g>
    </g>
    <g id="text_10">
     <!-- $x$ -->
     <defs>
      <path d="
M7.8125 2.875
Q9.57812 1.51562 12.7969 1.51562
Q15.9219 1.51562 18.3125 4.51562
Q20.7031 7.51562 21.5781 11.0781
L26.125 28.8125
Q27.2031 33.6406 27.2031 35.4062
Q27.2031 37.8906 25.8125 39.75
Q24.4219 41.6094 21.9219 41.6094
Q18.75 41.6094 15.9688 39.625
Q13.1875 37.6406 11.2812 34.5938
Q9.375 31.5469 8.59375 28.4219
Q8.40625 27.7812 7.8125 27.7812
L6.59375 27.7812
Q5.8125 27.7812 5.8125 28.7188
L5.8125 29
Q6.78125 32.7188 9.125 36.25
Q11.4688 39.7969 14.8594 41.9844
Q18.2656 44.1875 22.125 44.1875
Q25.7812 44.1875 28.7344 42.2344
Q31.6875 40.2812 32.9062 36.9219
Q34.625 39.9844 37.2812 42.0781
Q39.9375 44.1875 43.1094 44.1875
Q45.2656 44.1875 47.5 43.4219
Q49.75 42.6719 51.1719 41.1094
Q52.5938 39.5469 52.5938 37.2031
Q52.5938 34.6719 50.9531 32.8281
Q49.3125 31 46.7812 31
Q45.1719 31 44.0938 32.0312
Q43.0156 33.0625 43.0156 34.625
Q43.0156 36.7188 44.4531 38.2969
Q45.9062 39.8906 47.9062 40.1875
Q46.0938 41.6094 42.9219 41.6094
Q39.7031 41.6094 37.3281 38.625
Q34.9688 35.6406 33.9844 31.9844
L29.5938 14.3125
Q28.5156 10.2969 28.5156 7.71875
Q28.5156 5.17188 29.9531 3.34375
Q31.3906 1.51562 33.7969 1.51562
Q38.4844 1.51562 42.1562 5.64062
Q45.8438 9.76562 47.0156 14.7031
Q47.2188 15.2812 47.7969 15.2812
L49.0312 15.2812
Q49.4219 15.2812 49.6562 15.0156
Q49.9062 14.75 49.9062 14.4062
Q49.9062 14.3125 49.8125 14.1094
Q48.3906 8.15625 43.8438 3.51562
Q39.3125 -1.125 33.5938 -1.125
Q29.9375 -1.125 26.9844 0.84375
Q24.0312 2.82812 22.7969 6.20312
Q21.2344 3.26562 18.4688 1.0625
Q15.7188 -1.125 12.5938 -1.125
Q10.4531 -1.125 8.17188 -0.359375
Q5.90625 0.390625 4.48438 1.95312
Q3.07812 3.51562 3.07812 5.90625
Q3.07812 8.25 4.70312 10.1719
Q6.34375 12.1094 8.79688 12.1094
Q10.4531 12.1094 11.5781 11.1094
Q12.7031 10.1094 12.7031 8.5
Q12.7031 6.39062 11.2969 4.82812
Q9.90625 3.26562 7.8125 2.875" id="Cmmi10-78"/>
     </defs>
     <g style="fill:#262626;" transform="translate(305.261328125 374.03875)scale(0.2 -0.2)">
      <use transform="translate(0.0 0.8125)" xlink:href="#Cmmi10-78"/>
     </g>
    </g>
   </g>
   <g id="matplotlib.axis_2">
    <g id="ytick_1">
     <g id="line2d_28">
      <path clip-path="url(#p515d177238)" d="
M63.9975 329.765
L558.125 329.765" style="fill:none;stroke:#808080;stroke-linecap:round;"/>
     </g>
     <g id="line2d_29">
      <g>
       <use style="fill:#262626;stroke:#262626;" x="63.9975" xlink:href="#md70f53a077" y="329.765"/>
      </g>
     </g>
     <g id="line2d_30">
      <g>
       <use style="fill:#262626;stroke:#262626;" x="558.12515625" xlink:href="#md70f53a077" y="329.765"/>
      </g>
     </g>
     <g id="text_11">
      <!-- −4 -->
      <defs>
       <path d="
M4.9375 29.6875
L4.9375 36.8125
L53.5156 36.8125
L53.5156 29.6875
z
" id="LiberationSans-2212"/>
       <path d="
M43.0156 15.5781
L43.0156 0
L34.7188 0
L34.7188 15.5781
L2.29688 15.5781
L2.29688 22.4062
L33.7969 68.7969
L43.0156 68.7969
L43.0156 22.5156
L52.6875 22.5156
L52.6875 15.5781
z

M34.7188 58.8906
Q34.625 58.6406 34.2344 57.9375
Q33.8438 57.2344 33.3438 56.3438
Q32.8594 55.4688 32.3438 54.5625
Q31.8438 53.6562 31.4531 53.0781
L13.8125 27.0938
Q13.5781 26.7031 13.1094 26.0625
Q12.6406 25.4375 12.1562 24.7812
Q11.6719 24.125 11.1719 23.4844
Q10.6875 22.8594 10.4062 22.5156
L34.7188 22.5156
z
" id="LiberationSans-34"/>
      </defs>
      <g style="fill:#262626;" transform="translate(42.135625 333.3853125)scale(0.14 -0.14)">
       <use xlink:href="#LiberationSans-2212"/>
       <use x="58.3984375" xlink:href="#LiberationSans-34"/>
      </g>
     </g>
    </g>
    <g id="ytick_2">
     <g id="line2d_31">
      <path clip-path="url(#p515d177238)" d="
M63.9975 285.471
L558.125 285.471" style="fill:none;stroke:#808080;stroke-linecap:round;"/>
     </g>
     <g id="line2d_32">
      <g>
       <use style="fill:#262626;stroke:#262626;" x="63.9975" xlink:href="#md70f53a077" y="285.471428571"/>
      </g>
     </g>
     <g id="line2d_33">
      <g>
       <use style="fill:#262626;stroke:#262626;" x="558.12515625" xlink:href="#md70f53a077" y="285.471428571"/>
      </g>
     </g>
     <g id="text_12">
      <!-- −2 -->
      <defs>
       <path d="
M5.03125 0
L5.03125 6.20312
Q7.51562 11.9219 11.1094 16.2812
Q14.7031 20.6562 18.6562 24.1875
Q22.6094 27.7344 26.4844 30.7656
Q30.375 33.7969 33.5 36.8125
Q36.625 39.8438 38.5469 43.1562
Q40.4844 46.4844 40.4844 50.6875
Q40.4844 53.6094 39.5938 55.8281
Q38.7188 58.0625 37.0625 59.5625
Q35.4062 61.0781 33.0781 61.8281
Q30.7656 62.5938 27.9375 62.5938
Q25.2969 62.5938 22.9688 61.8594
Q20.6562 61.1406 18.8438 59.6719
Q17.0469 58.2031 15.8906 56.0312
Q14.75 53.8594 14.4062 50.9844
L5.42188 51.8125
Q5.85938 55.5156 7.46875 58.7812
Q9.07812 62.0625 11.9062 64.5312
Q14.75 67 18.7188 68.4062
Q22.7031 69.8281 27.9375 69.8281
Q33.0625 69.8281 37.0625 68.6094
Q41.0625 67.3906 43.8125 64.9844
Q46.5781 62.5938 48.0469 59.0781
Q49.5156 55.5625 49.5156 50.9844
Q49.5156 47.5156 48.2656 44.3906
Q47.0156 41.2656 44.9375 38.4219
Q42.875 35.5938 40.1406 32.9531
Q37.4062 30.3281 34.4219 27.8125
Q31.4531 25.2969 28.4219 22.8281
Q25.3906 20.3594 22.7188 17.8594
Q20.0625 15.375 17.9688 12.8125
Q15.875 10.25 14.7031 7.46875
L50.5938 7.46875
L50.5938 0
z
" id="LiberationSans-32"/>
      </defs>
      <g style="fill:#262626;" transform="translate(42.42875 289.091741071)scale(0.14 -0.14)">
       <use xlink:href="#LiberationSans-2212"/>
       <use x="58.3984375" xlink:href="#LiberationSans-32"/>
      </g>
     </g>
    </g>
    <g id="ytick_3">
     <g id="line2d_34">
      <path clip-path="url(#p515d177238)" d="
M63.9975 241.178
L558.125 241.178" style="fill:none;stroke:#808080;stroke-linecap:round;"/>
     </g>
     <g id="line2d_35">
      <g>
       <use style="fill:#262626;stroke:#262626;" x="63.9975" xlink:href="#md70f53a077" y="241.177857143"/>
      </g>
     </g>
     <g id="line2d_36">
      <g>
       <use style="fill:#262626;stroke:#262626;" x="558.12515625" xlink:href="#md70f53a077" y="241.177857143"/>
      </g>
     </g>
     <g id="text_13">
      <!-- 0 -->
      <defs>
       <path d="
M51.7031 34.4219
Q51.7031 24.5156 49.8281 17.75
Q47.9531 10.9844 44.7031 6.8125
Q41.4531 2.64062 37.0625 0.828125
Q32.6719 -0.984375 27.6875 -0.984375
Q22.6562 -0.984375 18.3125 0.828125
Q13.9688 2.64062 10.7656 6.78125
Q7.5625 10.9375 5.73438 17.7031
Q3.90625 24.4688 3.90625 34.4219
Q3.90625 44.8281 5.73438 51.6406
Q7.5625 58.4531 10.7812 62.5
Q14.0156 66.5469 18.4062 68.1875
Q22.7969 69.8281 27.9844 69.8281
Q32.9062 69.8281 37.2188 68.1875
Q41.5469 66.5469 44.7656 62.5
Q48 58.4531 49.8438 51.6406
Q51.7031 44.8281 51.7031 34.4219
M42.7812 34.4219
Q42.7812 42.625 41.7969 48.0625
Q40.8281 53.5156 38.9219 56.7656
Q37.0156 60.0156 34.25 61.3594
Q31.5 62.7031 27.9844 62.7031
Q24.2656 62.7031 21.4375 61.3281
Q18.6094 59.9688 16.6719 56.7188
Q14.75 53.4688 13.7656 48.0156
Q12.7969 42.5781 12.7969 34.4219
Q12.7969 26.5156 13.7969 21.0938
Q14.7969 15.6719 16.7188 12.375
Q18.6562 9.07812 21.4375 7.64062
Q24.2188 6.20312 27.7812 6.20312
Q31.25 6.20312 34.0312 7.64062
Q36.8125 9.07812 38.7344 12.375
Q40.6719 15.6719 41.7188 21.0938
Q42.7812 26.5156 42.7812 34.4219" id="LiberationSans-30"/>
      </defs>
      <g style="fill:#262626;" transform="translate(50.3059375 244.798169643)scale(0.14 -0.14)">
       <use xlink:href="#LiberationSans-30"/>
      </g>
     </g>
    </g>
    <g id="ytick_4">
     <g id="line2d_37">
      <path clip-path="url(#p515d177238)" d="
M63.9975 196.884
L558.125 196.884" style="fill:none;stroke:#808080;stroke-linecap:round;"/>
     </g>
     <g id="line2d_38">
      <g>
       <use style="fill:#262626;stroke:#262626;" x="63.9975" xlink:href="#md70f53a077" y="196.884285714"/>
      </g>
     </g>
     <g id="line2d_39">
      <g>
       <use style="fill:#262626;stroke:#262626;" x="558.12515625" xlink:href="#md70f53a077" y="196.884285714"/>
      </g>
     </g>
     <g id="text_14">
      <!-- 2 -->
      <g style="fill:#262626;" transform="translate(50.61875 200.504598214)scale(0.14 -0.14)">
       <use xlink:href="#LiberationSans-32"/>
      </g>
     </g>
    </g>
    <g id="ytick_5">
     <g id="line2d_40">
      <path clip-path="url(#p515d177238)" d="
M63.9975 152.591
L558.125 152.591" style="fill:none;stroke:#808080;stroke-linecap:round;"/>
     </g>
     <g id="line2d_41">
      <g>
       <use style="fill:#262626;stroke:#262626;" x="63.9975" xlink:href="#md70f53a077" y="152.590714286"/>
      </g>
     </g>
     <g id="line2d_42">
      <g>
       <use style="fill:#262626;stroke:#262626;" x="558.12515625" xlink:href="#md70f53a077" y="152.590714286"/>
      </g>
     </g>
     <g id="text_15">
      <!-- 4 -->
      <g style="fill:#262626;" transform="translate(49.9428125 156.211026786)scale(0.14 -0.14)">
       <use xlink:href="#LiberationSans-34"/>
      </g>
     </g>
    </g>
    <g id="ytick_6">
     <g id="line2d_43">
      <path clip-path="url(#p515d177238)" d="
M63.9975 108.297
L558.125 108.297" style="fill:none;stroke:#808080;stroke-linecap:round;"/>
     </g>
     <g id="line2d_44">
      <g>
       <use style="fill:#262626;stroke:#262626;" x="63.9975" xlink:href="#md70f53a077" y="108.297142857"/>
      </g>
     </g>
     <g id="line2d_45">
      <g>
       <use style="fill:#262626;stroke:#262626;" x="558.12515625" xlink:href="#md70f53a077" y="108.297142857"/>
      </g>
     </g>
     <g id="text_16">
      <!-- 6 -->
      <defs>
       <path d="
M51.2188 22.5156
Q51.2188 17.3281 49.7812 13
Q48.3438 8.6875 45.5312 5.57812
Q42.7188 2.48438 38.5625 0.75
Q34.4219 -0.984375 29 -0.984375
Q23 -0.984375 18.5 1.3125
Q14.0156 3.60938 11.0312 7.92188
Q8.0625 12.25 6.5625 18.5312
Q5.07812 24.8125 5.07812 32.8125
Q5.07812 42 6.76562 48.9219
Q8.45312 55.8594 11.625 60.5
Q14.7969 65.1406 19.3594 67.4844
Q23.9219 69.8281 29.6875 69.8281
Q33.2031 69.8281 36.2812 69.0938
Q39.3594 68.3594 41.875 66.7188
Q44.3906 65.0938 46.2812 62.4062
Q48.1875 59.7188 49.3125 55.8125
L40.9219 54.2969
Q39.5469 58.7344 36.5469 60.7188
Q33.5469 62.7031 29.5938 62.7031
Q25.9844 62.7031 23.0469 60.9844
Q20.125 59.2812 18.0625 55.875
Q16.0156 52.4844 14.9062 47.3594
Q13.8125 42.2344 13.8125 35.4062
Q16.2188 39.8438 20.5625 42.1562
Q24.9062 44.4844 30.5156 44.4844
Q35.2031 44.4844 39.0156 42.9688
Q42.8281 41.4531 45.5312 38.5938
Q48.25 35.75 49.7344 31.6719
Q51.2188 27.5938 51.2188 22.5156
M42.2812 22.125
Q42.2812 25.6875 41.4062 28.5625
Q40.5312 31.4531 38.7656 33.4688
Q37.0156 35.5 34.4219 36.5938
Q31.8438 37.7031 28.4219 37.7031
Q26.0312 37.7031 23.5781 36.9844
Q21.1406 36.2812 19.1562 34.6875
Q17.1875 33.1094 15.9375 30.5156
Q14.7031 27.9375 14.7031 24.2188
Q14.7031 20.4062 15.6719 17.1094
Q16.6562 13.8125 18.4844 11.375
Q20.3125 8.9375 22.8906 7.51562
Q25.4844 6.10938 28.7188 6.10938
Q31.8906 6.10938 34.4062 7.20312
Q36.9219 8.29688 38.6719 10.375
Q40.4375 12.4531 41.3594 15.4219
Q42.2812 18.4062 42.2812 22.125" id="LiberationSans-36"/>
      </defs>
      <g style="fill:#262626;" transform="translate(50.5378125 111.917455357)scale(0.14 -0.14)">
       <use xlink:href="#LiberationSans-36"/>
      </g>
     </g>
    </g>
    <g id="ytick_7">
     <g id="line2d_46">
      <path clip-path="url(#p515d177238)" d="
M63.9975 64.0036
L558.125 64.0036" style="fill:none;stroke:#808080;stroke-linecap:round;"/>
     </g>
     <g id="line2d_47">
      <g>
       <use style="fill:#262626;stroke:#262626;" x="63.9975" xlink:href="#md70f53a077" y="64.0035714286"/>
      </g>
     </g>
     <g id="line2d_48">
      <g>
       <use style="fill:#262626;stroke:#262626;" x="558.12515625" xlink:href="#md70f53a077" y="64.0035714286"/>
      </g>
     </g>
     <g id="text_17">
      <!-- 8 -->
      <defs>
       <path d="
M51.2656 19.1875
Q51.2656 14.7969 49.875 11.1094
Q48.4844 7.42188 45.625 4.73438
Q42.7812 2.04688 38.3281 0.53125
Q33.8906 -0.984375 27.8281 -0.984375
Q21.7812 -0.984375 17.3594 0.53125
Q12.9375 2.04688 10.0312 4.70312
Q7.125 7.375 5.73438 11.0625
Q4.34375 14.75 4.34375 19.0938
Q4.34375 22.8594 5.48438 25.7812
Q6.64062 28.7188 8.5625 30.8281
Q10.5 32.9531 12.9688 34.25
Q15.4375 35.5469 18.0625 35.9844
L18.0625 36.1875
Q15.1875 36.8594 12.9062 38.375
Q10.6406 39.8906 9.09375 42.0156
Q7.5625 44.1406 6.75 46.7188
Q5.95312 49.3125 5.95312 52.2031
Q5.95312 55.8125 7.34375 59
Q8.73438 62.2031 11.4688 64.625
Q14.2031 67.0469 18.25 68.4375
Q22.3125 69.8281 27.6406 69.8281
Q33.25 69.8281 37.375 68.4062
Q41.5 67 44.2031 64.5781
Q46.9219 62.1562 48.2344 58.9375
Q49.5625 55.7188 49.5625 52.0938
Q49.5625 49.2656 48.75 46.6719
Q47.9531 44.0938 46.4062 41.9688
Q44.875 39.8438 42.5938 38.3438
Q40.3281 36.8594 37.3594 36.2812
L37.3594 36.0781
Q40.3281 35.5938 42.8594 34.2969
Q45.4062 33.0156 47.2656 30.8906
Q49.125 28.7656 50.1875 25.8281
Q51.2656 22.9062 51.2656 19.1875
M40.4375 51.6094
Q40.4375 54.2031 39.7656 56.3438
Q39.1094 58.5 37.5938 60.0312
Q36.0781 61.5781 33.6406 62.4219
Q31.2031 63.2812 27.6406 63.2812
Q24.1719 63.2812 21.7812 62.4219
Q19.3906 61.5781 17.8438 60.0312
Q16.3125 58.5 15.625 56.3438
Q14.9375 54.2031 14.9375 51.6094
Q14.9375 49.5625 15.4688 47.4062
Q16.0156 45.2656 17.4219 43.5
Q18.8438 41.75 21.3281 40.625
Q23.8281 39.5 27.7344 39.5
Q31.8906 39.5 34.4062 40.625
Q36.9219 41.75 38.25 43.5
Q39.5938 45.2656 40.0156 47.4062
Q40.4375 49.5625 40.4375 51.6094
M42.1406 20.0156
Q42.1406 22.5156 41.4531 24.8281
Q40.7656 27.1562 39.1094 28.9375
Q37.4531 30.7188 34.6406 31.8125
Q31.8438 32.9062 27.6406 32.9062
Q23.7812 32.9062 21.0625 31.8125
Q18.3594 30.7188 16.6719 28.9062
Q14.9844 27.0938 14.2031 24.7188
Q13.4219 22.3594 13.4219 19.8281
Q13.4219 16.6562 14.2031 14.0312
Q14.9844 11.4219 16.6875 9.54688
Q18.4062 7.67188 21.1875 6.64062
Q23.9688 5.60938 27.9375 5.60938
Q31.9375 5.60938 34.6719 6.64062
Q37.4062 7.67188 39.0625 9.54688
Q40.7188 11.4219 41.4219 14.0781
Q42.1406 16.75 42.1406 20.0156" id="LiberationSans-38"/>
      </defs>
      <g style="fill:#262626;" transform="translate(50.4284375 67.6238839286)scale(0.14 -0.14)">
       <use xlink:href="#LiberationSans-38"/>
      </g>
     </g>
    </g>
    <g id="ytick_8">
     <g id="line2d_49">
      <path clip-path="url(#p515d177238)" d="
M63.9975 19.71
L558.125 19.71" style="fill:none;stroke:#808080;stroke-linecap:round;"/>
     </g>
     <g id="line2d_50">
      <g>
       <use style="fill:#262626;stroke:#262626;" x="63.9975" xlink:href="#md70f53a077" y="19.71"/>
      </g>
     </g>
     <g id="line2d_51">
      <g>
       <use style="fill:#262626;stroke:#262626;" x="558.12515625" xlink:href="#md70f53a077" y="19.71"/>
      </g>
     </g>
     <g id="text_18">
      <!-- 10 -->
      <defs>
       <path d="
M7.625 0
L7.625 7.46875
L25.1406 7.46875
L25.1406 60.4062
L9.625 49.3125
L9.625 57.625
L25.875 68.7969
L33.9844 68.7969
L33.9844 7.46875
L50.7344 7.46875
L50.7344 0
z
" id="LiberationSans-31"/>
      </defs>
      <g style="fill:#262626;" transform="translate(43.04125 23.3303125)scale(0.14 -0.14)">
       <use xlink:href="#LiberationSans-31"/>
       <use x="55.615234375" xlink:href="#LiberationSans-30"/>
      </g>
     </g>
    </g>
    <g id="text_19">
     <!-- $D_n(x)$ -->
     <defs>
      <path d="
M31 -24.8125
Q25.4375 -20.4062 21.4062 -14.7188
Q17.3906 -9.03125 14.8125 -2.57812
Q12.25 3.85938 10.9844 10.8906
Q9.71875 17.9219 9.71875 25
Q9.71875 32.1719 10.9844 39.2031
Q12.25 46.2344 14.8594 52.7344
Q17.4844 59.2344 21.5312 64.8906
Q25.5938 70.5625 31 74.8125
Q31 75 31.5 75
L32.4219 75
Q32.7188 75 32.9531 74.7344
Q33.2031 74.4688 33.2031 74.125
Q33.2031 73.6875 33.0156 73.4844
Q28.125 68.7031 24.875 63.2344
Q21.625 57.7656 19.6406 51.5781
Q17.6719 45.4062 16.7969 38.7812
Q15.9219 32.1719 15.9219 25
Q15.9219 -6.78125 32.9062 -23.2969
Q33.2031 -23.5781 33.2031 -24.125
Q33.2031 -24.3594 32.9375 -24.6719
Q32.6719 -25 32.4219 -25
L31.5 -25
Q31 -25 31 -24.8125" id="Cmr10-28"/>
      <path d="
M4.89062 0
Q3.90625 0 3.90625 1.3125
Q3.95312 1.5625 4.09375 2.17188
Q4.25 2.78125 4.51562 3.14062
Q4.78125 3.51562 5.17188 3.51562
Q11.2812 3.51562 13.7188 4.20312
Q14.9844 4.64062 15.5781 6.89062
L29.2969 61.8125
Q29.5 62.7969 29.5 63.1875
Q29.5 64.2656 28.3281 64.4062
Q26.4219 64.7969 21.0938 64.7969
Q20.125 64.7969 20.125 66.1094
Q20.1719 66.3594 20.3125 66.9688
Q20.4531 67.5781 20.7188 67.9375
Q21 68.3125 21.3906 68.3125
L57.3281 68.3125
Q64.3125 68.3125 69.5312 64.9219
Q74.75 61.5312 77.5312 55.7812
Q80.3281 50.0469 80.3281 43.1094
Q80.3281 35.4531 77.1406 27.7812
Q73.9688 20.125 68.25 13.7656
Q62.5469 7.42188 55.2188 3.70312
Q47.9062 0 40.1875 0
z

M23.5781 4.29688
Q23.5781 3.51562 27 3.51562
L38.625 3.51562
Q44.1875 3.51562 49.3594 5.8125
Q54.5469 8.10938 58.5938 12.1094
Q62.3594 15.875 65.2344 21.9688
Q68.1094 28.0781 69.7031 34.7188
Q71.2969 41.3594 71.2969 46.9219
Q71.2969 50.9844 70.0938 54.25
Q68.8906 57.5156 66.7188 59.8594
Q64.5469 62.2031 61.2812 63.5
Q58.0156 64.7969 53.9062 64.7969
L42.9219 64.7969
Q40.1875 64.7969 39.2969 64.3281
Q38.4219 63.875 37.7031 61.375
L24.0312 6.5
Q23.5781 5.28125 23.5781 4.29688" id="Cmmi10-44"/>
      <path d="
M6.5 -25
Q5.60938 -25 5.60938 -24.125
Q5.60938 -23.6875 5.8125 -23.4844
Q22.9062 -6.78125 22.9062 25
Q22.9062 56.7812 6 73.2969
Q5.60938 73.5312 5.60938 74.125
Q5.60938 74.4688 5.875 74.7344
Q6.15625 75 6.5 75
L7.42188 75
Q7.71875 75 7.90625 74.8125
Q15.0938 69.1406 19.875 61.0312
Q24.6562 52.9375 26.875 43.75
Q29.1094 34.5781 29.1094 25
Q29.1094 17.9219 27.9062 11.0625
Q26.7031 4.20312 24.0938 -2.45312
Q21.4844 -9.125 17.4844 -14.7656
Q13.4844 -20.4062 7.90625 -24.8125
Q7.71875 -25 7.42188 -25
z
" id="Cmr10-29"/>
      <path d="
M7.71875 1.70312
Q7.71875 2.29688 7.8125 2.59375
L15.2812 32.4219
Q16.0156 35.2031 16.0156 37.3125
Q16.0156 41.6094 13.0938 41.6094
Q9.96875 41.6094 8.45312 37.8594
Q6.9375 34.125 5.51562 28.4219
Q5.51562 28.125 5.21875 27.9531
Q4.9375 27.7812 4.6875 27.7812
L3.51562 27.7812
Q3.17188 27.7812 2.92188 28.1406
Q2.6875 28.5156 2.6875 28.8125
Q3.76562 33.1562 4.76562 36.1719
Q5.76562 39.2031 7.89062 41.6875
Q10.0156 44.1875 13.1875 44.1875
Q16.9375 44.1875 19.8125 41.8125
Q22.7031 39.4531 22.7031 35.7969
Q25.6875 39.7031 29.6875 41.9375
Q33.6875 44.1875 38.1875 44.1875
Q41.75 44.1875 44.3281 42.9688
Q46.9219 41.75 48.3594 39.2812
Q49.8125 36.8125 49.8125 33.4062
Q49.8125 29.2969 47.9688 23.4844
Q46.1406 17.6719 43.4062 10.5
Q42 7.23438 42 4.5
Q42 1.51562 44.2812 1.51562
Q48.1875 1.51562 50.7969 5.70312
Q53.4219 9.90625 54.5 14.7031
Q54.6875 15.2812 55.3281 15.2812
L56.5 15.2812
Q56.8906 15.2812 57.1562 15.0312
Q57.4219 14.7969 57.4219 14.4062
Q57.4219 14.3125 57.3281 14.1094
Q55.9531 8.45312 52.5625 3.65625
Q49.1719 -1.125 44.0938 -1.125
Q40.5781 -1.125 38.0781 1.29688
Q35.5938 3.71875 35.5938 7.17188
Q35.5938 9.03125 36.375 11.0781
Q37.6406 14.3594 39.2812 18.8906
Q40.9219 23.4375 41.9688 27.5781
Q43.0156 31.7344 43.0156 34.9062
Q43.0156 37.7031 41.8594 39.6562
Q40.7188 41.6094 37.9844 41.6094
Q34.3281 41.6094 31.25 39.9844
Q28.1719 38.375 25.875 35.7188
Q23.5781 33.0625 21.6875 29.3906
L14.8906 2.20312
Q14.5469 0.828125 13.3438 -0.140625
Q12.1562 -1.125 10.6875 -1.125
Q9.46875 -1.125 8.59375 -0.34375
Q7.71875 0.4375 7.71875 1.70312" id="Cmmi10-6e"/>
     </defs>
     <g style="fill:#262626;" transform="translate(31.735625 202.5375)rotate(-90.0)scale(0.2 -0.2)">
      <use xlink:href="#Cmmi10-44"/>
      <use transform="translate(82.71484375 -25.509375000000006)scale(0.7)" xlink:href="#Cmmi10-6e"/>
      <use transform="translate(142.724609375 0.0)" xlink:href="#Cmr10-28"/>
      <use transform="translate(181.54296875 0.0)" xlink:href="#Cmmi10-78"/>
      <use transform="translate(238.623046875 0.0)" xlink:href="#Cmr10-29"/>
     </g>
    </g>
   </g>
   <g id="line2d_52">
    <path clip-path="url(#p515d177238)" d="
M63.9975 263.325
L69.7881 263.205
L75.5786 262.845
L81.3692 262.248
L87.1597 261.417
L92.9503 260.357
L98.7409 259.072
L104.531 257.57
L110.805 255.708
L117.078 253.613
L123.833 251.111
L130.589 248.372
L137.827 245.198
L145.548 241.569
L154.234 237.229
L163.885 232.149
L175.948 225.53
L215.517 203.598
L225.168 198.632
L233.371 194.649
L241.092 191.142
L248.33 188.097
L255.086 185.492
L261.842 183.133
L268.115 181.18
L274.388 179.467
L280.178 178.109
L285.969 176.973
L291.759 176.065
L297.55 175.39
L303.341 174.951
L309.131 174.751
L314.922 174.791
L320.712 175.071
L326.503 175.589
L332.293 176.342
L338.084 177.327
L343.874 178.537
L349.665 179.968
L355.938 181.756
L362.211 183.781
L368.484 186.03
L375.24 188.686
L382.478 191.78
L390.199 195.334
L398.402 199.359
L407.571 204.109
L418.669 210.123
L435.076 219.303
L454.86 230.32
L465.476 235.981
L474.645 240.626
L482.848 244.536
L490.569 247.962
L497.807 250.923
L504.562 253.442
L510.836 255.555
L517.109 257.436
L523.382 259.072
L529.172 260.357
L534.963 261.417
L540.753 262.248
L546.544 262.845
L552.335 263.205
L558.125 263.325
L558.125 263.325" style="fill:none;stroke:#4c72b0;stroke-linecap:round;stroke-width:3.0;"/>
   </g>
   <g id="line2d_53">
    <path clip-path="url(#p515d177238)" d="
M63.9975 219.031
L67.3753 219.154
L70.7532 219.52
L74.131 220.127
L77.5088 220.968
L80.8866 222.037
L84.2645 223.323
L88.1248 225.043
L91.9852 227.01
L96.3281 229.488
L101.154 232.525
L106.462 236.143
L113.217 241.035
L131.071 254.129
L136.379 257.665
L140.722 260.312
L144.583 262.434
L148.443 264.305
L151.821 265.71
L155.199 266.878
L158.577 267.791
L161.472 268.359
L164.367 268.718
L167.262 268.859
L170.158 268.777
L173.053 268.464
L175.948 267.917
L178.844 267.131
L181.739 266.104
L184.634 264.835
L187.529 263.325
L190.425 261.574
L193.32 259.587
L196.698 256.974
L200.076 254.053
L203.453 250.834
L206.831 247.332
L210.692 243.002
L214.552 238.348
L218.895 232.763
L223.72 226.18
L229.028 218.56
L235.784 208.449
L258.946 173.35
L264.254 165.907
L269.08 159.543
L273.423 154.21
L277.283 149.829
L280.661 146.304
L284.039 143.087
L287.417 140.2
L290.312 138.002
L293.207 136.069
L296.102 134.41
L298.998 133.032
L301.41 132.104
L303.823 131.38
L306.236 130.86
L308.649 130.548
L311.061 130.444
L313.474 130.548
L315.887 130.86
L318.3 131.38
L320.712 132.104
L323.125 133.032
L326.02 134.41
L328.916 136.069
L331.811 138.002
L334.706 140.2
L337.601 142.654
L340.979 145.825
L344.357 149.308
L348.217 153.643
L352.078 158.323
L356.421 163.954
L361.246 170.596
L367.037 178.992
L374.275 189.923
L393.094 218.56
L398.885 226.854
L403.71 233.401
L408.053 238.947
L412.396 244.116
L416.256 248.361
L420.117 252.249
L423.495 255.342
L426.872 258.132
L430.25 260.61
L433.146 262.479
L436.041 264.11
L438.936 265.5
L441.831 266.647
L444.727 267.554
L447.622 268.22
L450.517 268.65
L453.413 268.846
L456.308 268.816
L459.203 268.565
L462.098 268.101
L464.994 267.432
L468.371 266.408
L471.749 265.135
L475.127 263.635
L478.988 261.666
L482.848 259.458
L487.191 256.73
L492.499 253.118
L499.254 248.225
L517.109 235.132
L522.417 231.586
L527.242 228.633
L531.585 226.245
L535.445 224.368
L539.306 222.746
L542.684 221.552
L546.061 220.579
L549.439 219.837
L552.817 219.333
L556.195 219.071
L558.125 219.031
L558.125 219.031" style="fill:none;stroke:#55a868;stroke-linecap:round;stroke-width:3.0;"/>
   </g>
   <g id="line2d_54">
    <path clip-path="url(#p515d177238)" d="
M63.9975 263.325
L66.4102 263.2
L68.823 262.826
L71.2357 262.208
L73.6484 261.351
L76.0612 260.265
L78.4739 258.96
L81.3692 257.126
L84.2645 255.025
L87.6423 252.278
L91.5027 248.819
L96.3281 244.154
L111.287 229.38
L115.147 226.021
L118.525 223.395
L121.421 221.424
L124.316 219.748
L126.729 218.6
L129.141 217.693
L131.554 217.04
L133.967 216.653
L136.379 216.538
L138.31 216.647
L140.24 216.935
L142.653 217.549
L145.065 218.442
L147.478 219.61
L149.891 221.044
L152.304 222.735
L154.716 224.668
L157.612 227.287
L160.507 230.201
L163.885 233.922
L167.745 238.516
L173.053 245.228
L183.669 258.786
L187.529 263.325
L190.907 266.951
L193.803 269.731
L196.215 271.775
L198.628 273.539
L201.041 274.995
L202.971 275.92
L204.901 276.618
L206.831 277.078
L208.761 277.289
L210.692 277.241
L212.622 276.928
L214.552 276.34
L216.482 275.474
L218.412 274.323
L220.343 272.885
L222.273 271.159
L224.203 269.143
L226.133 266.84
L228.546 263.559
L230.959 259.84
L233.371 255.695
L235.784 251.138
L238.679 245.151
L241.575 238.636
L244.952 230.426
L248.33 221.636
L252.191 210.998
L257.016 197.03
L265.219 172.441
L272.458 151.018
L276.801 138.806
L280.661 128.603
L284.039 120.316
L286.934 113.772
L289.829 107.808
L292.242 103.322
L294.655 99.3062
L297.067 95.7879
L298.998 93.3467
L300.928 91.2487
L302.858 89.5026
L304.788 88.1159
L306.236 87.3151
L307.684 86.7217
L309.131 86.3371
L310.579 86.162
L312.026 86.197
L313.474 86.442
L314.922 86.8964
L316.369 87.5591
L317.817 88.4285
L319.265 89.5026
L321.195 91.2487
L323.125 93.3467
L325.055 95.7879
L326.985 98.562
L329.398 102.48
L331.811 106.874
L334.224 111.716
L337.119 118.074
L340.014 124.971
L343.392 133.616
L347.252 144.151
L352.078 158.051
L359.316 179.709
L367.519 204.09
L372.345 217.714
L376.205 227.97
L379.583 236.354
L382.961 244.101
L385.856 250.178
L388.751 255.695
L391.164 259.84
L393.577 263.559
L395.99 266.84
L397.92 269.143
L399.85 271.159
L401.78 272.885
L403.71 274.323
L405.64 275.474
L407.571 276.34
L409.501 276.928
L411.431 277.241
L413.361 277.289
L415.291 277.078
L417.222 276.618
L419.152 275.92
L421.082 274.995
L423.012 273.856
L425.425 272.152
L427.838 270.161
L430.733 267.437
L433.628 264.398
L437.006 260.529
L441.349 255.184
L449.552 244.606
L455.343 237.339
L459.203 232.827
L462.581 229.199
L465.476 226.38
L468.371 223.867
L470.784 222.028
L473.197 220.439
L475.61 219.11
L478.022 218.052
L480.435 217.27
L482.848 216.769
L484.778 216.57
L486.708 216.551
L489.121 216.775
L491.534 217.27
L493.946 218.026
L496.359 219.031
L498.772 220.272
L501.667 222.05
L504.562 224.111
L507.94 226.828
L511.801 230.268
L516.626 234.924
L532.068 250.151
L535.928 253.491
L539.306 256.107
L542.201 258.078
L545.096 259.768
L547.509 260.943
L549.922 261.893
L552.335 262.608
L554.747 263.08
L557.16 263.305
L558.125 263.325
L558.125 263.325" style="fill:none;stroke:#c44e52;stroke-linecap:round;stroke-width:3.0;"/>
   </g>
   <g id="line2d_55">
    <path clip-path="url(#p515d177238)" d="
M63.9975 219.031
L65.9277 219.164
L67.8579 219.563
L69.7881 220.221
L71.7182 221.133
L73.6484 222.288
L75.5786 223.671
L77.9913 225.699
L80.4041 228.023
L83.2994 231.145
L86.6772 235.143
L91.5027 241.247
L98.2583 249.794
L101.636 253.726
L104.531 256.766
L106.944 259.001
L109.357 260.919
L111.287 262.199
L113.217 263.235
L115.147 264.013
L117.078 264.521
L119.008 264.751
L120.938 264.699
L122.868 264.361
L124.798 263.74
L126.729 262.84
L128.659 261.668
L130.589 260.236
L132.519 258.557
L134.932 256.138
L137.345 253.399
L140.24 249.755
L143.618 245.124
L148.926 237.389
L154.716 229.01
L158.094 224.495
L160.989 221.008
L163.402 218.449
L165.332 216.669
L167.262 215.154
L169.193 213.926
L171.123 213.006
L172.57 212.527
L174.018 212.236
L175.466 212.139
L176.913 212.238
L178.361 212.536
L179.809 213.035
L181.256 213.735
L182.704 214.634
L184.634 216.139
L186.564 217.984
L188.495 220.158
L190.425 222.642
L192.837 226.153
L195.25 230.068
L198.145 235.219
L201.523 241.707
L206.831 252.47
L212.622 264.07
L216 270.295
L218.412 274.323
L220.825 277.903
L222.755 280.387
L224.685 282.488
L226.133 283.79
L227.581 284.839
L229.028 285.621
L230.476 286.123
L231.924 286.332
L233.371 286.237
L234.819 285.828
L236.267 285.097
L237.714 284.036
L239.162 282.64
L240.61 280.905
L242.057 278.828
L243.505 276.407
L245.435 272.646
L247.365 268.282
L249.295 263.325
L251.226 257.79
L253.638 250.091
L256.051 241.574
L258.464 232.302
L261.359 220.282
L264.737 205.213
L268.597 186.941
L274.87 155.964
L281.626 122.91
L285.486 105.161
L288.382 92.7641
L291.277 81.3643
L293.69 72.7546
L296.102 65.0546
L298.033 59.6064
L299.963 54.8327
L301.893 50.7671
L303.341 48.2001
L304.788 46.0579
L306.236 44.349
L307.684 43.0803
L308.649 42.4816
L309.614 42.0818
L310.579 41.8818
L311.544 41.8818
L312.509 42.0818
L313.474 42.4816
L314.439 43.0803
L315.404 43.8769
L316.852 45.4397
L318.3 47.4383
L319.747 49.8648
L321.195 52.7094
L322.642 55.9609
L324.573 60.9066
L326.503 66.5176
L328.433 72.7546
L330.846 81.3643
L333.258 90.7899
L336.154 103.034
L339.532 118.365
L343.874 139.239
L357.386 205.213
L360.764 220.282
L363.659 232.302
L366.554 243.34
L368.967 251.698
L371.38 259.227
L373.31 264.619
L375.24 269.429
L377.17 273.643
L379.1 277.252
L380.548 279.558
L381.996 281.521
L383.443 283.143
L384.891 284.427
L386.339 285.377
L387.786 286
L389.234 286.303
L390.682 286.296
L392.129 285.988
L393.577 285.391
L395.024 284.519
L396.472 283.384
L397.92 282.001
L399.85 279.8
L401.78 277.227
L404.193 273.55
L406.606 269.443
L409.501 264.07
L413.361 256.409
L423.012 237.027
L426.39 230.894
L429.285 226.153
L431.698 222.642
L433.628 220.158
L435.558 217.984
L437.489 216.139
L439.419 214.634
L441.349 213.48
L442.797 212.847
L444.244 212.415
L445.692 212.183
L447.139 212.15
L448.587 212.312
L450.035 212.666
L451.482 213.206
L453.413 214.205
L455.343 215.507
L457.273 217.091
L459.203 218.933
L461.616 221.559
L464.511 225.114
L467.889 229.685
L472.714 236.677
L479.47 246.48
L482.848 251.008
L485.743 254.53
L488.156 257.146
L490.569 259.426
L492.499 260.984
L494.429 262.287
L496.359 263.325
L498.289 264.086
L500.22 264.566
L502.15 264.761
L504.08 264.671
L506.01 264.301
L507.94 263.657
L509.871 262.749
L511.801 261.588
L513.731 260.192
L516.144 258.143
L518.556 255.792
L521.452 252.64
L524.829 248.613
L530.137 241.868
L536.411 233.969
L539.788 230.068
L542.684 227.06
L545.096 224.85
L547.509 222.952
L549.439 221.681
L551.37 220.646
L553.3 219.86
L555.23 219.331
L557.16 219.064
L558.125 219.031
L558.125 219.031" style="fill:none;stroke:#8172b2;stroke-linecap:round;stroke-width:3.0;"/>
   </g>
   <g id="patch_3">
    <path d="
M63.9975 329.765
L63.9975 19.71" style="fill:none;"/>
   </g>
   <g id="patch_4">
    <path d="
M63.9975 19.71
L558.125 19.71" style="fill:none;"/>
   </g>
   <g id="patch_5">
    <path d="
M558.125 329.765
L558.125 19.71" style="fill:none;"/>
   </g>
   <g id="patch_6">
    <path d="
M63.9975 329.765
L558.125 329.765" style="fill:none;"/>
   </g>
   <g id="legend_1">
    <g id="line2d_56">
     <path d="
M408.905 49.05
L444.905 49.05" style="fill:none;stroke:#4c72b0;stroke-linecap:round;stroke-width:3.0;"/>
    </g>
    <g id="line2d_57"/>
    <g id="text_20">
     <!-- $\frac{\sin((1+1/2)x)}{\sin(x/2)}$ -->
     <defs>
      <path d="
M3.07812 0
L3.07812 3.51562
Q6.5 3.51562 8.6875 4.04688
Q10.8906 4.59375 10.8906 6.6875
L10.8906 33.9844
Q10.8906 37.8438 9.39062 38.7188
Q7.90625 39.5938 3.51562 39.5938
L3.51562 43.1094
L17.9219 44.1875
L17.9219 6.6875
Q17.9219 4.59375 19.8281 4.04688
Q21.7344 3.51562 24.9062 3.51562
L24.9062 0
z

M7.32812 61.375
Q7.32812 63.5781 8.98438 65.2344
Q10.6406 66.8906 12.7969 66.8906
Q14.2031 66.8906 15.5156 66.1562
Q16.8438 65.4375 17.5781 64.1094
Q18.3125 62.7969 18.3125 61.375
Q18.3125 59.2344 16.6406 57.5625
Q14.9844 55.9062 12.7969 55.9062
Q10.6406 55.9062 8.98438 57.5625
Q7.32812 59.2344 7.32812 61.375" id="Cmr10-69"/>
      <path d="
M2.98438 0
L2.98438 3.51562
Q6.39062 3.51562 8.59375 4.04688
Q10.7969 4.59375 10.7969 6.6875
L10.7969 33.9844
Q10.7969 36.6719 9.98438 37.8594
Q9.1875 39.0625 7.67188 39.3281
Q6.15625 39.5938 2.98438 39.5938
L2.98438 43.1094
L17.4844 44.1875
L17.4844 34.4219
Q19.4844 38.7188 23.4062 41.4531
Q27.3438 44.1875 31.9844 44.1875
Q38.9219 44.1875 42.4062 40.8594
Q45.9062 37.5469 45.9062 30.7188
L45.9062 6.6875
Q45.9062 4.59375 48.0938 4.04688
Q50.2969 3.51562 53.7188 3.51562
L53.7188 0
L30.8125 0
L30.8125 3.51562
Q34.2344 3.51562 36.4219 4.04688
Q38.625 4.59375 38.625 6.6875
L38.625 30.4219
Q38.625 35.2969 37.2031 38.4531
Q35.7969 41.6094 31.3906 41.6094
Q25.5938 41.6094 21.8438 36.9688
Q18.1094 32.3281 18.1094 26.4219
L18.1094 6.6875
Q18.1094 4.59375 20.3125 4.04688
Q22.5156 3.51562 25.875 3.51562
L25.875 0
z
" id="Cmr10-6e"/>
      <path d="
M5.60938 -23
Q5.60938 -22.7031 5.71875 -22.6094
L40.4844 73.7812
Q40.6719 74.3594 41.1562 74.6719
Q41.6562 75 42.2812 75
Q43.1719 75 43.7188 74.4531
Q44.2812 73.9219 44.2812 73
L44.2812 72.6094
L9.51562 -23.7812
Q8.9375 -25 7.625 -25
Q6.78125 -25 6.1875 -24.4062
Q5.60938 -23.8281 5.60938 -23" id="Cmmi10-3d"/>
      <path d="
M7.51562 23
Q6.6875 23 6.14062 23.625
Q5.60938 24.2656 5.60938 25
Q5.60938 25.7344 6.14062 26.3594
Q6.6875 27 7.51562 27
L36.9219 27
L36.9219 56.5
Q36.9219 57.2812 37.5 57.7812
Q38.0938 58.2969 38.9219 58.2969
Q39.6562 58.2969 40.2812 57.7812
Q40.9219 57.2812 40.9219 56.5
L40.9219 27
L70.3125 27
Q71.0469 27 71.5781 26.3594
Q72.125 25.7344 72.125 25
Q72.125 24.2656 71.5781 23.625
Q71.0469 23 70.3125 23
L40.9219 23
L40.9219 -6.5
Q40.9219 -7.28125 40.2812 -7.78125
Q39.6562 -8.29688 38.9219 -8.29688
Q38.0938 -8.29688 37.5 -7.78125
Q36.9219 -7.28125 36.9219 -6.5
L36.9219 23
z
" id="Cmr10-2b"/>
      <path d="
M9.28125 0
L9.28125 3.51562
Q21.7812 3.51562 21.7812 6.6875
L21.7812 59.1875
Q16.6094 56.6875 8.6875 56.6875
L8.6875 60.2031
Q20.9531 60.2031 27.2031 66.6094
L28.6094 66.6094
Q28.9531 66.6094 29.2656 66.3281
Q29.5938 66.0625 29.5938 65.7188
L29.5938 6.6875
Q29.5938 3.51562 42.0938 3.51562
L42.0938 0
z
" id="Cmr10-31"/>
      <path d="
M3.32812 -0.296875
L3.32812 16.0156
Q3.32812 16.7969 4.20312 16.7969
L5.42188 16.7969
Q6 16.7969 6.20312 16.0156
Q8.98438 1.51562 19.6719 1.51562
Q24.4219 1.51562 27.6094 3.65625
Q30.8125 5.8125 30.8125 10.2969
Q30.8125 13.5312 28.3125 15.7969
Q25.8281 18.0625 22.4062 18.8906
L15.7188 20.2188
Q12.3594 20.9531 9.59375 22.4531
Q6.84375 23.9688 5.07812 26.4844
Q3.32812 29 3.32812 32.3281
Q3.32812 36.7188 5.64062 39.5156
Q7.95312 42.3281 11.6562 43.5781
Q15.375 44.8281 19.6719 44.8281
Q24.8125 44.8281 28.6094 42.0938
L31.5 44.5781
Q31.5 44.8281 31.9844 44.8281
L32.7188 44.8281
Q33.0156 44.8281 33.25 44.5469
Q33.5 44.2812 33.5 44
L33.5 30.9062
Q33.5 29.9844 32.7188 29.9844
L31.5 29.9844
Q30.6094 29.9844 30.6094 30.9062
Q30.6094 36.1406 27.7031 39.3125
Q24.8125 42.4844 19.5781 42.4844
Q15.0938 42.4844 11.7969 40.8125
Q8.5 39.1562 8.5 35.1094
Q8.5 32.3281 10.8594 30.5469
Q13.2344 28.7656 16.4062 27.9844
L23.1875 26.7031
Q26.6094 25.9219 29.5625 24.0625
Q32.5156 22.2188 34.25 19.375
Q35.9844 16.5469 35.9844 12.9844
Q35.9844 9.375 34.7344 6.70312
Q33.5 4.04688 31.2656 2.28125
Q29.0469 0.53125 26.0156 -0.296875
Q23 -1.125 19.6719 -1.125
Q13.4219 -1.125 8.98438 3.07812
L5.32812 -0.875
Q5.32812 -1.125 4.78125 -1.125
L4.20312 -1.125
Q3.32812 -1.125 3.32812 -0.296875" id="Cmr10-73"/>
     </defs>
     <g style="fill:#262626;" transform="translate(459.30515625 55.35)scale(0.18 -0.18)">
      <use transform="translate(0.0 55.5)scale(0.7)" xlink:href="#Cmr10-73"/>
      <use transform="translate(27.5830078125 55.5)scale(0.7)" xlink:href="#Cmr10-69"/>
      <use transform="translate(46.962890625 55.5)scale(0.7)" xlink:href="#Cmr10-6e"/>
      <use transform="translate(85.8251953125 55.5)scale(0.7)" xlink:href="#Cmr10-28"/>
      <use transform="translate(112.998046875 55.5)scale(0.7)" xlink:href="#Cmr10-28"/>
      <use transform="translate(140.1708984375 55.5)scale(0.7)" xlink:href="#Cmr10-31"/>
      <use transform="translate(187.4619140625 55.5)scale(0.7)" xlink:href="#Cmr10-2b"/>
      <use transform="translate(246.3029296875 55.5)scale(0.7)" xlink:href="#Cmr10-31"/>
      <use transform="translate(281.3029296875 55.5)scale(0.7)" xlink:href="#Cmmi10-3d"/>
      <use transform="translate(316.3029296875 55.5)scale(0.7)" xlink:href="#Cmr10-32"/>
      <use transform="translate(351.3029296875 55.5)scale(0.7)" xlink:href="#Cmr10-29"/>
      <use transform="translate(378.47578125 55.5)scale(0.7)" xlink:href="#Cmmi10-78"/>
      <use transform="translate(418.4318359375 55.5)scale(0.7)" xlink:href="#Cmr10-29"/>
      <use transform="translate(98.0 -45.75)scale(0.7)" xlink:href="#Cmr10-73"/>
      <use transform="translate(125.5830078125 -45.75)scale(0.7)" xlink:href="#Cmr10-69"/>
      <use transform="translate(144.962890625 -45.75)scale(0.7)" xlink:href="#Cmr10-6e"/>
      <use transform="translate(183.8251953125 -45.75)scale(0.7)" xlink:href="#Cmr10-28"/>
      <use transform="translate(210.998046875 -45.75)scale(0.7)" xlink:href="#Cmmi10-78"/>
      <use transform="translate(250.9541015625 -45.75)scale(0.7)" xlink:href="#Cmmi10-3d"/>
      <use transform="translate(285.9541015625 -45.75)scale(0.7)" xlink:href="#Cmr10-32"/>
      <use transform="translate(320.9541015625 -45.75)scale(0.7)" xlink:href="#Cmr10-29"/>
      <path d="
M0 13
L0 19.25
L445.605 19.25
L445.605 13
L0 13
z
"/>
     </g>
    </g>
    <g id="line2d_58">
     <path d="
M408.905 89.01
L444.905 89.01" style="fill:none;stroke:#55a868;stroke-linecap:round;stroke-width:3.0;"/>
    </g>
    <g id="line2d_59"/>
    <g id="text_21">
     <!-- $\frac{\sin((2+1/2)x)}{\sin(x/2)}$ -->
     <g style="fill:#262626;" transform="translate(459.30515625 95.31)scale(0.18 -0.18)">
      <use transform="translate(0.0 55.5)scale(0.7)" xlink:href="#Cmr10-73"/>
      <use transform="translate(27.5830078125 55.5)scale(0.7)" xlink:href="#Cmr10-69"/>
      <use transform="translate(46.962890625 55.5)scale(0.7)" xlink:href="#Cmr10-6e"/>
      <use transform="translate(85.8251953125 55.5)scale(0.7)" xlink:href="#Cmr10-28"/>
      <use transform="translate(112.998046875 55.5)scale(0.7)" xlink:href="#Cmr10-28"/>
      <use transform="translate(140.1708984375 55.5)scale(0.7)" xlink:href="#Cmr10-32"/>
      <use transform="translate(187.4619140625 55.5)scale(0.7)" xlink:href="#Cmr10-2b"/>
      <use transform="translate(246.3029296875 55.5)scale(0.7)" xlink:href="#Cmr10-31"/>
      <use transform="translate(281.3029296875 55.5)scale(0.7)" xlink:href="#Cmmi10-3d"/>
      <use transform="translate(316.3029296875 55.5)scale(0.7)" xlink:href="#Cmr10-32"/>
      <use transform="translate(351.3029296875 55.5)scale(0.7)" xlink:href="#Cmr10-29"/>
      <use transform="translate(378.47578125 55.5)scale(0.7)" xlink:href="#Cmmi10-78"/>
      <use transform="translate(418.4318359375 55.5)scale(0.7)" xlink:href="#Cmr10-29"/>
      <use transform="translate(98.0 -45.75)scale(0.7)" xlink:href="#Cmr10-73"/>
      <use transform="translate(125.5830078125 -45.75)scale(0.7)" xlink:href="#Cmr10-69"/>
      <use transform="translate(144.962890625 -45.75)scale(0.7)" xlink:href="#Cmr10-6e"/>
      <use transform="translate(183.8251953125 -45.75)scale(0.7)" xlink:href="#Cmr10-28"/>
      <use transform="translate(210.998046875 -45.75)scale(0.7)" xlink:href="#Cmmi10-78"/>
      <use transform="translate(250.9541015625 -45.75)scale(0.7)" xlink:href="#Cmmi10-3d"/>
      <use transform="translate(285.9541015625 -45.75)scale(0.7)" xlink:href="#Cmr10-32"/>
      <use transform="translate(320.9541015625 -45.75)scale(0.7)" xlink:href="#Cmr10-29"/>
      <path d="
M0 13
L0 19.25
L445.605 19.25
L445.605 13
L0 13
z
"/>
     </g>
    </g>
    <g id="line2d_60">
     <path d="
M408.905 128.97
L444.905 128.97" style="fill:none;stroke:#c44e52;stroke-linecap:round;stroke-width:3.0;"/>
    </g>
    <g id="line2d_61"/>
    <g id="text_22">
     <!-- $\frac{\sin((3+1/2)x)}{\sin(x/2)}$ -->
     <g style="fill:#262626;" transform="translate(459.30515625 135.27)scale(0.18 -0.18)">
      <use transform="translate(0.0 55.5)scale(0.7)" xlink:href="#Cmr10-73"/>
      <use transform="translate(27.5830078125 55.5)scale(0.7)" xlink:href="#Cmr10-69"/>
      <use transform="translate(46.962890625 55.5)scale(0.7)" xlink:href="#Cmr10-6e"/>
      <use transform="translate(85.8251953125 55.5)scale(0.7)" xlink:href="#Cmr10-28"/>
      <use transform="translate(112.998046875 55.5)scale(0.7)" xlink:href="#Cmr10-28"/>
      <use transform="translate(140.1708984375 55.5)scale(0.7)" xlink:href="#Cmr10-33"/>
      <use transform="translate(187.4619140625 55.5)scale(0.7)" xlink:href="#Cmr10-2b"/>
      <use transform="translate(246.3029296875 55.5)scale(0.7)" xlink:href="#Cmr10-31"/>
      <use transform="translate(281.3029296875 55.5)scale(0.7)" xlink:href="#Cmmi10-3d"/>
      <use transform="translate(316.3029296875 55.5)scale(0.7)" xlink:href="#Cmr10-32"/>
      <use transform="translate(351.3029296875 55.5)scale(0.7)" xlink:href="#Cmr10-29"/>
      <use transform="translate(378.47578125 55.5)scale(0.7)" xlink:href="#Cmmi10-78"/>
      <use transform="translate(418.4318359375 55.5)scale(0.7)" xlink:href="#Cmr10-29"/>
      <use transform="translate(98.0 -45.75)scale(0.7)" xlink:href="#Cmr10-73"/>
      <use transform="translate(125.5830078125 -45.75)scale(0.7)" xlink:href="#Cmr10-69"/>
      <use transform="translate(144.962890625 -45.75)scale(0.7)" xlink:href="#Cmr10-6e"/>
      <use transform="translate(183.8251953125 -45.75)scale(0.7)" xlink:href="#Cmr10-28"/>
      <use transform="translate(210.998046875 -45.75)scale(0.7)" xlink:href="#Cmmi10-78"/>
      <use transform="translate(250.9541015625 -45.75)scale(0.7)" xlink:href="#Cmmi10-3d"/>
      <use transform="translate(285.9541015625 -45.75)scale(0.7)" xlink:href="#Cmr10-32"/>
      <use transform="translate(320.9541015625 -45.75)scale(0.7)" xlink:href="#Cmr10-29"/>
      <path d="
M0 13
L0 19.25
L445.605 19.25
L445.605 13
L0 13
z
"/>
     </g>
    </g>
    <g id="line2d_62">
     <path d="
M408.905 168.93
L444.905 168.93" style="fill:none;stroke:#8172b2;stroke-linecap:round;stroke-width:3.0;"/>
    </g>
    <g id="line2d_63"/>
    <g id="text_23">
     <!-- $\frac{\sin((4+1/2)x)}{\sin(x/2)}$ -->
     <g style="fill:#262626;" transform="translate(459.30515625 175.23)scale(0.18 -0.18)">
      <use transform="translate(0.0 55.5)scale(0.7)" xlink:href="#Cmr10-73"/>
      <use transform="translate(27.5830078125 55.5)scale(0.7)" xlink:href="#Cmr10-69"/>
      <use transform="translate(46.962890625 55.5)scale(0.7)" xlink:href="#Cmr10-6e"/>
      <use transform="translate(85.8251953125 55.5)scale(0.7)" xlink:href="#Cmr10-28"/>
      <use transform="translate(112.998046875 55.5)scale(0.7)" xlink:href="#Cmr10-28"/>
      <use transform="translate(140.1708984375 55.5)scale(0.7)" xlink:href="#Cmr10-34"/>
      <use transform="translate(187.4619140625 55.5)scale(0.7)" xlink:href="#Cmr10-2b"/>
      <use transform="translate(246.3029296875 55.5)scale(0.7)" xlink:href="#Cmr10-31"/>
      <use transform="translate(281.3029296875 55.5)scale(0.7)" xlink:href="#Cmmi10-3d"/>
      <use transform="translate(316.3029296875 55.5)scale(0.7)" xlink:href="#Cmr10-32"/>
      <use transform="translate(351.3029296875 55.5)scale(0.7)" xlink:href="#Cmr10-29"/>
      <use transform="translate(378.47578125 55.5)scale(0.7)" xlink:href="#Cmmi10-78"/>
      <use transform="translate(418.4318359375 55.5)scale(0.7)" xlink:href="#Cmr10-29"/>
      <use transform="translate(98.0 -45.75)scale(0.7)" xlink:href="#Cmr10-73"/>
      <use transform="translate(125.5830078125 -45.75)scale(0.7)" xlink:href="#Cmr10-69"/>
      <use transform="translate(144.962890625 -45.75)scale(0.7)" xlink:href="#Cmr10-6e"/>
      <use transform="translate(183.8251953125 -45.75)scale(0.7)" xlink:href="#Cmr10-28"/>
      <use transform="translate(210.998046875 -45.75)scale(0.7)" xlink:href="#Cmmi10-78"/>
      <use transform="translate(250.9541015625 -45.75)scale(0.7)" xlink:href="#Cmmi10-3d"/>
      <use transform="translate(285.9541015625 -45.75)scale(0.7)" xlink:href="#Cmr10-32"/>
      <use transform="translate(320.9541015625 -45.75)scale(0.7)" xlink:href="#Cmr10-29"/>
      <path d="
M0 13
L0 19.25
L445.605 19.25
L445.605 13
L0 13
z
"/>
     </g>
    </g>
   </g>
  </g>
 </g>
 <defs>
  <clipPath id="p515d177238">
   <rect height="310.055" width="494.12765625" x="63.9975" y="19.71"/>
  </clipPath>
 </defs>
</svg>
